<svg xmlns="http://www.w3.org/2000/svg" width="940" height="650" viewBox="0 0 940 650" role="img" font-family="'JetBrains Mono','SFMono-Regular',Menlo,Consolas,monospace">
  <title>AuraMind architecture</title>
  <desc>Local-first RAG: a Next.js frontend and FastAPI backend embed documents on-device with SentenceTransformers into ChromaDB; only retrieved chunks are sent across a trust boundary to NVIDIA NIM (MiniMax M2.7) for streamed generation. SQLite stores history.</desc>

  <defs>
    <marker id="ag" markerWidth="9" markerHeight="9" refX="6" refY="3" orient="auto"><path d="M0,0 L6,3 L0,6 Z" fill="#3DF07A"/></marker>
    <marker id="aa" markerWidth="9" markerHeight="9" refX="6" refY="3" orient="auto"><path d="M0,0 L6,3 L0,6 Z" fill="#FFB000"/></marker>
    <marker id="ar" markerWidth="9" markerHeight="9" refX="6" refY="3" orient="auto"><path d="M0,0 L6,3 L0,6 Z" fill="#5E7A64"/></marker>
    <filter id="glow" x="-60%" y="-60%" width="220%" height="220%"><feGaussianBlur stdDeviation="2.4" result="b"/><feMerge><feMergeNode in="b"/><feMergeNode in="SourceGraphic"/></feMerge></filter>
    <pattern id="scan" width="3" height="3" patternUnits="userSpaceOnUse"><line x1="0" y1="0" x2="3" y2="0" stroke="#0F1A0F" stroke-width="1"/></pattern>
  </defs>

  <rect x="0" y="0" width="940" height="650" fill="#0A0F0A"/>
  <rect x="0" y="0" width="940" height="650" fill="url(#scan)" opacity="0.6"/>

  <!-- title bar -->
  <circle cx="26" cy="28" r="5" fill="#FF5F56"/>
  <circle cx="44" cy="28" r="5" fill="#FFB000"/>
  <circle cx="62" cy="28" r="5" fill="#3DF07A"/>
  <text x="84" y="32" fill="#5E7A64" font-size="12">auramind // architecture.svg</text>
  <line x1="16" y1="46" x2="924" y2="46" stroke="#1C2A1E" stroke-width="1"/>

  <!-- trust boundary -->
  <rect x="18" y="58" width="604" height="556" rx="10" fill="none" stroke="#2A4030" stroke-width="1" stroke-dasharray="5 6"/>
  <text x="34" y="80" fill="#5E7A64" font-size="11" font-weight="700">your machine // local</text>

  <!-- frontend -->
  <rect x="56" y="96" width="512" height="60" rx="6" fill="#0E140E" stroke="#1C2A1E"/>
  <text x="74" y="124" fill="#3DF07A" font-size="14" font-weight="700" filter="url(#glow)">Next.js frontend</text>
  <text x="74" y="144" fill="#5E7A64" font-size="11">chat · documents · admin · JWT login (browser)</text>

  <line x1="312" y1="156" x2="312" y2="194" stroke="#5E7A64" stroke-width="1" marker-end="url(#ar)"/>
  <text x="320" y="180" fill="#C6ECCD" font-size="10">JWT · SSE</text>

  <!-- backend (hub) -->
  <rect x="56" y="196" width="512" height="86" rx="6" fill="#0E140E" stroke="#1C2A1E"/>
  <text x="74" y="224" fill="#3DF07A" font-size="14" font-weight="700" filter="url(#glow)">FastAPI backend</text>
  <text x="74" y="245" fill="#C6ECCD" font-size="11">routers: /auth  /chat  /documents  /history  /admin</text>
  <text x="74" y="264" fill="#5E7A64" font-size="11">orchestrates: retrieve -&gt; generate · SQLAlchemy</text>

  <!-- ingest arrow (amber) backend -> docproc -->
  <line x1="140" y1="282" x2="140" y2="360" stroke="#FFB000" stroke-width="1" marker-end="url(#aa)"/>
  <text x="100" y="322" fill="#FFB000" font-size="10">ingest</text>

  <!-- query / chunks arrows (green) between backend and core -->
  <line x1="300" y1="282" x2="300" y2="334" stroke="#3DF07A" stroke-width="1" marker-end="url(#ag)"/>
  <text x="296" y="302" fill="#3DF07A" font-size="10" text-anchor="end">query</text>
  <line x1="322" y1="334" x2="322" y2="282" stroke="#3DF07A" stroke-width="1" marker-end="url(#ag)"/>
  <text x="328" y="302" fill="#3DF07A" font-size="10">chunks</text>

  <!-- persist arrow (gray) backend -> sqlite -->
  <line x1="484" y1="282" x2="484" y2="330" stroke="#5E7A64" stroke-width="1" marker-end="url(#ar)"/>
  <text x="492" y="312" fill="#5E7A64" font-size="10">persist</text>

  <!-- RAG core panel -->
  <rect x="56" y="336" width="300" height="228" rx="8" fill="none" stroke="#1C2A1E"/>
  <text x="240" y="352" fill="#5E7A64" font-size="11" font-weight="700">local RAG core</text>

  <rect x="72" y="360" width="268" height="52" rx="5" fill="#0E140E" stroke="#1C2A1E"/>
  <text x="86" y="381" fill="#C6ECCD" font-size="12">DocumentProcessor · PyMuPDF</text>
  <text x="86" y="399" fill="#5E7A64" font-size="10">extract + chunk PDF text</text>

  <line x1="206" y1="412" x2="206" y2="429" stroke="#FFB000" stroke-width="1" marker-end="url(#aa)"/>

  <rect x="72" y="430" width="268" height="52" rx="5" fill="#0E140E" stroke="#1C2A1E"/>
  <text x="86" y="451" fill="#C6ECCD" font-size="12">EmbeddingService · MiniLM-L6</text>
  <text x="86" y="469" fill="#5E7A64" font-size="10">local · 384-dim vectors</text>

  <line x1="206" y1="482" x2="206" y2="499" stroke="#FFB000" stroke-width="1" marker-end="url(#aa)"/>

  <rect x="72" y="500" width="268" height="52" rx="5" fill="#0E140E" stroke="#1C2A1E"/>
  <text x="86" y="521" fill="#C6ECCD" font-size="12">ChromaDB · vector store</text>
  <text x="86" y="539" fill="#5E7A64" font-size="10">similarity search · top-k</text>

  <!-- SQLite -->
  <rect x="400" y="332" width="168" height="64" rx="6" fill="#0E140E" stroke="#1C2A1E"/>
  <text x="416" y="360" fill="#C6ECCD" font-size="12">SQLite</text>
  <text x="416" y="379" fill="#5E7A64" font-size="10">users · convos · messages</text>

  <!-- NVIDIA NIM (outside boundary) -->
  <rect x="700" y="200" width="210" height="120" rx="8" fill="#0E140E" stroke="#21B257" stroke-width="1.5"/>
  <text x="718" y="232" fill="#3DF07A" font-size="15" font-weight="700" filter="url(#glow)">NVIDIA NIM</text>
  <text x="718" y="256" fill="#FFB000" font-size="12">MiniMax M2.7</text>
  <text x="718" y="275" fill="#5E7A64" font-size="10">swappable · OpenAI-compatible</text>
  <text x="718" y="302" fill="#5E7A64" font-size="10">[ hosted · external ]</text>

  <!-- backend <-> nvidia (crosses boundary) -->
  <line x1="568" y1="228" x2="698" y2="248" stroke="#3DF07A" stroke-width="1" marker-end="url(#ag)"/>
  <text x="592" y="222" fill="#3DF07A" font-size="10">context -&gt;</text>
  <line x1="698" y1="288" x2="568" y2="266" stroke="#3DF07A" stroke-width="1" marker-end="url(#ag)"/>
  <text x="588" y="306" fill="#3DF07A" font-size="10">&lt;- streamed tokens</text>

  <!-- legend -->
  <line x1="40" y1="630" x2="64" y2="630" stroke="#3DF07A" stroke-width="2"/>
  <text x="72" y="634" fill="#C6ECCD" font-size="10">query · answer</text>
  <line x1="196" y1="630" x2="220" y2="630" stroke="#FFB000" stroke-width="2"/>
  <text x="228" y="634" fill="#C6ECCD" font-size="10">document ingestion</text>
  <line x1="380" y1="630" x2="404" y2="630" stroke="#5E7A64" stroke-width="2"/>
  <text x="412" y="634" fill="#C6ECCD" font-size="10">persistence</text>
  <text x="520" y="634" fill="#5E7A64" font-size="10">dashed = your machine · only retrieved snippets cross to NVIDIA</text>
</svg>
